<svg width="129" height="40" viewBox="0 0 129 40" fill="none" xmlns="http://www.w3.org/2000/svg">
<path d="M36.48 27V12.8H39.52V26.18L37.84 24.44H46.06V27H36.48ZM46.4528 27V16.28H49.4528V27H46.4528ZM46.3928 14.96V12.56H49.4928V14.96H46.3928ZM53.9025 27L49.9825 16.28H53.1225L55.6625 23.98L58.1825 16.28H61.3225L57.3825 27H53.9025ZM61.6208 27V16.28H64.4608L64.5608 19.4L64.3408 19.34C64.5141 18.26 64.8208 17.48 65.2608 17C65.7008 16.52 66.3074 16.28 67.0808 16.28H68.0608V18.76H67.0808C66.5208 18.76 66.0608 18.8333 65.7008 18.98C65.3408 19.1267 65.0674 19.36 64.8808 19.68C64.7074 20 64.6208 20.4333 64.6208 20.98V27H61.6208ZM73.1761 27.24C72.0828 27.24 71.1294 27.0133 70.3161 26.56C69.5028 26.0933 68.8694 25.44 68.4161 24.6C67.9628 23.76 67.7361 22.7733 67.7361 21.64C67.7361 20.5067 67.9628 19.5267 68.4161 18.7C68.8694 17.86 69.5028 17.2067 70.3161 16.74C71.1294 16.2733 72.0828 16.04 73.1761 16.04C74.2694 16.04 75.2228 16.2733 76.0361 16.74C76.8494 17.2067 77.4828 17.86 77.9361 18.7C78.3894 19.5267 78.6161 20.5067 78.6161 21.64C78.6161 22.7733 78.3894 23.76 77.9361 24.6C77.4828 25.44 76.8494 26.0933 76.0361 26.56C75.2228 27.0133 74.2694 27.24 73.1761 27.24ZM73.1761 24.94C73.9228 24.94 74.5028 24.6533 74.9161 24.08C75.3294 23.4933 75.5361 22.68 75.5361 21.64C75.5361 20.6 75.3294 19.7933 74.9161 19.22C74.5028 18.6333 73.9228 18.34 73.1761 18.34C72.4294 18.34 71.8494 18.6333 71.4361 19.22C71.0228 19.7933 70.8161 20.6 70.8161 21.64C70.8161 22.68 71.0228 23.4933 71.4361 24.08C71.8494 24.6533 72.4294 24.94 73.1761 24.94ZM85.4594 27.32C84.2327 27.32 83.1794 27.1133 82.2994 26.7C81.4194 26.2867 80.7327 25.7067 80.2394 24.96C79.746 24.2133 79.466 23.3333 79.3994 22.32L82.4594 22.18C82.5394 22.74 82.6994 23.22 82.9394 23.62C83.1927 24.0067 83.526 24.3 83.9394 24.5C84.366 24.7 84.886 24.8 85.4994 24.8C86.006 24.8 86.4327 24.74 86.7794 24.62C87.1394 24.5 87.4127 24.32 87.5994 24.08C87.786 23.8267 87.8794 23.52 87.8794 23.16C87.8794 22.8267 87.7994 22.54 87.6394 22.3C87.4794 22.0467 87.1727 21.82 86.7194 21.62C86.266 21.4067 85.5994 21.2 84.7194 21C83.506 20.72 82.526 20.4067 81.7794 20.06C81.046 19.7133 80.5127 19.28 80.1794 18.76C79.846 18.2267 79.6794 17.56 79.6794 16.76C79.6794 15.9067 79.886 15.16 80.2994 14.52C80.726 13.88 81.3394 13.38 82.1394 13.02C82.9394 12.66 83.8927 12.48 84.9994 12.48C86.1727 12.48 87.166 12.6867 87.9794 13.1C88.7927 13.5133 89.426 14.08 89.8794 14.8C90.346 15.52 90.626 16.3467 90.7194 17.28L87.6794 17.44C87.6394 16.9467 87.506 16.52 87.2794 16.16C87.0527 15.7867 86.746 15.5 86.3594 15.3C85.9727 15.1 85.506 15 84.9594 15C84.266 15 83.7194 15.1533 83.3194 15.46C82.9327 15.7667 82.7394 16.1667 82.7394 16.66C82.7394 17.0067 82.826 17.3 82.9994 17.54C83.186 17.7667 83.486 17.9667 83.8994 18.14C84.326 18.3133 84.926 18.48 85.6994 18.64C87.0194 18.9067 88.0594 19.2467 88.8194 19.66C89.5927 20.06 90.1394 20.54 90.4594 21.1C90.7794 21.66 90.9394 22.3 90.9394 23.02C90.9394 23.9 90.7127 24.6667 90.2594 25.32C89.8194 25.96 89.186 26.4533 88.3594 26.8C87.546 27.1467 86.5794 27.32 85.4594 27.32ZM95.5313 27.24C94.4246 27.24 93.5179 26.9867 92.8113 26.48C92.1179 25.96 91.7713 25.24 91.7713 24.32C91.7713 23.3733 92.0646 22.6467 92.6513 22.14C93.2513 21.62 94.1313 21.24 95.2913 21L98.7513 20.32C98.7513 19.6267 98.5913 19.1067 98.2713 18.76C97.9646 18.4 97.5179 18.22 96.9313 18.22C96.3579 18.22 95.9113 18.3533 95.5913 18.62C95.2713 18.8733 95.0646 19.2533 94.9713 19.76L91.9513 19.62C92.1513 18.4467 92.6779 17.56 93.5312 16.96C94.3979 16.3467 95.5313 16.04 96.9313 16.04C98.5313 16.04 99.7313 16.42 100.531 17.18C101.345 17.94 101.751 19.0533 101.751 20.52V24.18C101.751 24.4867 101.798 24.6933 101.891 24.8C101.998 24.8933 102.151 24.94 102.351 24.94H102.651V27C102.558 27.0267 102.405 27.0533 102.191 27.08C101.991 27.1067 101.791 27.12 101.591 27.12C101.165 27.12 100.765 27.0467 100.391 26.9C100.031 26.7533 99.7379 26.5067 99.5113 26.16C99.2846 25.8 99.1713 25.2933 99.1713 24.64L99.4313 24.84C99.2979 25.32 99.0579 25.74 98.7113 26.1C98.3779 26.46 97.9379 26.74 97.3913 26.94C96.8579 27.14 96.2379 27.24 95.5313 27.24ZM96.2513 25.18C96.7446 25.18 97.1779 25.0867 97.5513 24.9C97.9246 24.7 98.2179 24.4133 98.4313 24.04C98.6446 23.6667 98.7513 23.2267 98.7513 22.72V22.2L96.3112 22.72C95.8313 22.8133 95.4646 22.9733 95.2113 23.2C94.9713 23.4133 94.8513 23.6933 94.8513 24.04C94.8513 24.4 94.9713 24.68 95.2113 24.88C95.4513 25.08 95.7979 25.18 96.2513 25.18ZM106.367 27.24C105.261 27.24 104.354 26.9867 103.647 26.48C102.954 25.96 102.607 25.24 102.607 24.32C102.607 23.3733 102.901 22.6467 103.487 22.14C104.087 21.62 104.967 21.24 106.127 21L109.587 20.32C109.587 19.6267 109.427 19.1067 109.107 18.76C108.801 18.4 108.354 18.22 107.767 18.22C107.194 18.22 106.747 18.3533 106.427 18.62C106.107 18.8733 105.901 19.2533 105.807 19.76L102.787 19.62C102.987 18.4467 103.514 17.56 104.367 16.96C105.234 16.3467 106.367 16.04 107.767 16.04C109.367 16.04 110.567 16.42 111.367 17.18C112.181 17.94 112.587 19.0533 112.587 20.52V24.18C112.587 24.4867 112.634 24.6933 112.727 24.8C112.834 24.8933 112.987 24.94 113.187 24.94H113.487V27C113.394 27.0267 113.241 27.0533 113.027 27.08C112.827 27.1067 112.627 27.12 112.427 27.12C112.001 27.12 111.601 27.0467 111.227 26.9C110.867 26.7533 110.574 26.5067 110.347 26.16C110.121 25.8 110.007 25.2933 110.007 24.64L110.267 24.84C110.134 25.32 109.894 25.74 109.547 26.1C109.214 26.46 108.774 26.74 108.227 26.94C107.694 27.14 107.074 27.24 106.367 27.24ZM107.087 25.18C107.581 25.18 108.014 25.0867 108.387 24.9C108.761 24.7 109.054 24.4133 109.267 24.04C109.481 23.6667 109.587 23.2267 109.587 22.72V22.2L107.147 22.72C106.667 22.8133 106.301 22.9733 106.047 23.2C105.807 23.4133 105.687 23.6933 105.687 24.04C105.687 24.4 105.807 24.68 106.047 24.88C106.287 25.08 106.634 25.18 107.087 25.18ZM119.842 27.32C118.616 27.32 117.562 27.1133 116.682 26.7C115.802 26.2867 115.116 25.7067 114.622 24.96C114.129 24.2133 113.849 23.3333 113.782 22.32L116.842 22.18C116.922 22.74 117.082 23.22 117.322 23.62C117.576 24.0067 117.909 24.3 118.322 24.5C118.749 24.7 119.269 24.8 119.882 24.8C120.389 24.8 120.816 24.74 121.162 24.62C121.522 24.5 121.796 24.32 121.982 24.08C122.169 23.8267 122.262 23.52 122.262 23.16C122.262 22.8267 122.182 22.54 122.022 22.3C121.862 22.0467 121.556 21.82 121.102 21.62C120.649 21.4067 119.982 21.2 119.102 21C117.889 20.72 116.909 20.4067 116.162 20.06C115.429 19.7133 114.896 19.28 114.562 18.76C114.229 18.2267 114.062 17.56 114.062 16.76C114.062 15.9067 114.269 15.16 114.682 14.52C115.109 13.88 115.722 13.38 116.522 13.02C117.322 12.66 118.276 12.48 119.382 12.48C120.556 12.48 121.549 12.6867 122.362 13.1C123.176 13.5133 123.809 14.08 124.262 14.8C124.729 15.52 125.009 16.3467 125.102 17.28L122.062 17.44C122.022 16.9467 121.889 16.52 121.662 16.16C121.436 15.7867 121.129 15.5 120.742 15.3C120.356 15.1 119.889 15 119.342 15C118.649 15 118.102 15.1533 117.702 15.46C117.316 15.7667 117.122 16.1667 117.122 16.66C117.122 17.0067 117.209 17.3 117.382 17.54C117.569 17.7667 117.869 17.9667 118.282 18.14C118.709 18.3133 119.309 18.48 120.082 18.64C121.402 18.9067 122.442 19.2467 123.202 19.66C123.976 20.06 124.522 20.54 124.842 21.1C125.162 21.66 125.322 22.3 125.322 23.02C125.322 23.9 125.096 24.6667 124.642 25.32C124.202 25.96 123.569 26.4533 122.742 26.8C121.929 27.1467 120.962 27.32 119.842 27.32Z" fill="black"/>
<g clip-path="url(#clip0_8403_16)">
<path d="M23.25 16.625H14.6625L12 8.75L9.3375 16.625H0.75L7.6875 21.5L5.025 29.375L12 24.5L18.9375 29.375L16.275 21.5L23.25 16.625Z" fill="#6B7280"/>
<path d="M17.325 15.6125L18.825 11.3375L14.8875 14.0375L15.45 15.6125H17.325ZM10.4625 26.75L12 31.25L13.5375 26.75L12 25.7L10.4625 26.75ZM19.0125 20.8625L17.5875 21.8375L18.1875 23.6375H23.025L19.0125 20.8625ZM9.1125 14.0375L5.175 11.3375L6.675 15.6125H8.55L9.1125 14.0375ZM4.9875 20.8625L0.974998 23.6375H5.8125L6.4125 21.8375L4.9875 20.8625Z" fill="black"/>
</g>
<defs>
<clipPath id="clip0_8403_16">
<rect width="24" height="24" fill="white" transform="translate(0 8)"/>
</clipPath>
</defs>
</svg>
