<svg width="40" height="41" viewBox="0 0 40 41" fill="none" xmlns="http://www.w3.org/2000/svg">
<path d="M20 8.83362C20.8653 8.83362 21.7112 8.57703 22.4306 8.0963C23.1501 7.61557 23.7109 6.93229 24.042 6.13286C24.3731 5.33343 24.4598 4.45377 24.291 3.6051C24.1221 2.75643 23.7055 1.97688 23.0936 1.36503C22.4818 0.753173 21.7022 0.336495 20.8535 0.167685C20.0049 -0.00112581 19.1252 0.0855138 18.3258 0.416647C17.5263 0.747781 16.843 1.30854 16.3623 2.028C15.8816 2.74747 15.625 3.59333 15.625 4.45862C15.625 5.61894 16.0859 6.73174 16.9064 7.55221C17.7269 8.37268 18.8397 8.83362 20 8.83362ZM33.7501 35.0836H6.24993C5.91841 35.0836 5.60047 35.2153 5.36605 35.4497C5.13162 35.6842 4.99993 36.0021 4.99993 36.3336V38.8336C4.99993 39.1651 5.13162 39.4831 5.36605 39.7175C5.60047 39.9519 5.91841 40.0836 6.24993 40.0836H33.7501C34.0816 40.0836 34.3995 39.9519 34.634 39.7175C34.8684 39.4831 35.0001 39.1651 35.0001 38.8336V36.3336C35.0001 36.0021 34.8684 35.6842 34.634 35.4497C34.3995 35.2153 34.0816 35.0836 33.7501 35.0836ZM39.4431 14.4711L37.2157 13.2274C36.6345 12.8367 35.8946 13.0352 35.4743 13.593C35.0556 14.1535 34.4872 14.5845 33.8345 14.8365C33.1817 15.0884 32.4712 15.1511 31.7844 15.0172C29.9766 14.6821 28.75 12.9688 28.75 11.1305C28.75 10.8528 28.6397 10.5866 28.4434 10.3902C28.2471 10.1939 27.9808 10.0836 27.7032 10.0836H24.6742C24.2055 10.0836 23.7672 10.3961 23.6695 10.8578C23.4923 11.6998 23.0309 12.4551 22.3627 12.9972C21.6946 13.5393 20.8604 13.8352 20 13.8352C19.1396 13.8352 18.3054 13.5393 17.6373 12.9972C16.9691 12.4551 16.5077 11.6998 16.3305 10.8578C16.2328 10.3953 15.7976 10.0836 15.3258 10.0836H12.2968C12.0192 10.0836 11.7529 10.1939 11.5566 10.3902C11.3603 10.5866 11.25 10.8528 11.25 11.1305C11.25 13.1375 9.76558 14.9391 7.7601 15.075C7.13695 15.119 6.5128 15.0049 5.94549 14.7433C5.37817 14.4818 4.88607 14.0813 4.51477 13.5789C4.10227 13.025 3.36398 12.8407 2.78898 13.2242L0.556937 14.4742C0.303343 14.6432 0.120199 14.899 0.0419342 15.1935C-0.0363304 15.488 -0.00432451 15.8009 0.131935 16.0735L8.14369 32.5836H31.8563L39.8681 16.0703C40.0043 15.7978 40.0363 15.4848 39.9581 15.1903C39.8798 14.8958 39.6967 14.6401 39.4431 14.4711Z" fill="#E1C8F4"/>
</svg>
